<?xml version="1.0" encoding="utf-8"?>
<!-- Generator: Adobe Illustrator 19.2.1, SVG Export Plug-In . SVG Version: 6.00 Build 0)  -->
<svg version="1.1" id="Layer_1" xmlns="http://www.w3.org/2000/svg" xmlns:xlink="http://www.w3.org/1999/xlink" x="0px" y="0px"
	 viewBox="0 0 355 54.8" style="enable-background:new 0 0 355 54.8;" xml:space="preserve">
<style type="text/css">
	.st0{fill:url(#SVGID_1_);}
	.st1{fill:#FFFFFF;}
	.st2{fill:#E3051A;}
</style>
<g>
	<g>
		
			<linearGradient id="SVGID_1_" gradientUnits="userSpaceOnUse" x1="339.9435" y1="794.3877" x2="321.802" y2="825.8096" gradientTransform="matrix(1 0 0 1 0 -786)">
			<stop  offset="0" style="stop-color:#4565AD"/>
			<stop  offset="0.1098" style="stop-color:#7687C3"/>
			<stop  offset="0.2412" style="stop-color:#A8B0DA"/>
			<stop  offset="0.3548" style="stop-color:#CCCFEA"/>
			<stop  offset="0.4448" style="stop-color:#E1E3F3"/>
			<stop  offset="0.5" style="stop-color:#E9EAF7"/>
			<stop  offset="0.75" style="stop-color:#F9F9FD"/>
			<stop  offset="1" style="stop-color:#F9F9FD"/>
		</linearGradient>
		<path class="st0" d="M345.1,13.3c-4,4-12.9,7.5-17.2,9.1c-5.9,2.2-8.5,3-11.9,4.1c-3.7,1.2-11.2,3.5-11.2,3.5
			c15.5,4.6,26.5,6,26.5,6s5.1-1.6,13.2-5.9c4.4-2.2,6.5-3.7,8.1-5.2c0.6-0.5,2-2,2.4-4c0-0.1,0.1-0.5,0.1-0.9c0,0,0-0.3,0-0.5
			c0-0.3-0.1-0.4-0.1-0.4s-0.1-0.5-0.2-0.8s-0.6-1.3-1.4-2c-0.6-0.4-1.5-1.5-4.9-2.7c-1.2-0.4-3-0.8-3-0.8L345.1,13.3z"/>
	</g>
</g>
<g>
	<g>
		<path class="st1" d="M0,54.4C0.8,54,1.1,53,1.1,52.2V32.4c0-0.8-0.3-1.8-1.1-2.2h9.5c4.2,0,8.3,1.7,8.3,6.5c0,2.5-2.2,4.5-4.6,5
			c3.4,0,6.8,2.1,6.8,5.9c0,5.4-5.7,6.8-9.7,6.8H0z M7.7,32.3c-0.4,0-0.7,0-1.6,0.1v8.5h1c2.9,0,5.7-0.9,5.7-4.3
			C12.8,33.2,10.5,32.3,7.7,32.3z M8.3,43c-0.7,0-1.3,0-2.2,0.1V52c1,0.2,2.2,0.3,3.2,0.3c2.4,0,4.9-1.1,4.9-4.8
			C14.2,43.8,11.3,43,8.3,43z M29.3,32.3c-0.4,0-0.8,0.1-1.2,0.1v8.4c0.4,0,0.8,0.1,1.1,0.1c2.7,0,4.7-1.5,4.7-4.5
			C33.9,33.3,32,32.3,29.3,32.3z M41.5,54.5c-0.9,0-1.9,0-2.8-0.2c-1.6-0.5-3.9-4.2-4.8-5.6c-1.4-2.4-2.6-5.6-5.8-5.7v9.2
			c0,0.8,0.4,1.8,1.1,2.2H22c0.8-0.4,1.1-1.3,1.1-2.2V32.4c0-0.8-0.4-1.8-1.1-2.2h8.7c3.8,0,8.6,1.5,8.6,6c0,3.8-3.2,5.8-6.7,5.8
			c5,0,8,11.8,13.5,11.9C44.6,54.3,43,54.5,41.5,54.5z M46.5,54.4c0.6-0.3,1.2-1.1,1.2-2.2V32.4c0-1.1-0.6-1.9-1.2-2.2h7.4
			c-0.6,0.3-1.2,1.1-1.2,2.2v19.8c0,1.1,0.6,1.9,1.2,2.2H46.5z M62.6,54.4c0.8-0.4,1.2-1.3,1.2-2.2V33h-5.3c-1.2,0-2.7,0.1-3.8,0.8
			l1.7-3.6h17.7c1.4,0,2.9,0,4.3-0.3c-0.7,1.8-2.7,3.2-3.8,3.2c-1.4,0-3.7-0.1-5.7-0.1v19.3c0,0.8,0.4,1.8,1.2,2.2L62.6,54.4
			L62.6,54.4z M79.2,54.4c0.6-0.3,1.2-1.1,1.2-2.2V32.4c0-1.1-0.6-1.9-1.2-2.2h7.4c-0.6,0.3-1.2,1.1-1.2,2.2v19.8
			c0,1.1,0.6,1.9,1.2,2.2H79.2z M101.2,48.9c0-4.6-10.8-5.6-10.8-13c0-4.6,4.3-6,8.1-6c1.7,0,4.2,0.2,5.7,0.9l0.3,4.5
			c-1-2-3.3-3.4-5.6-3.4c-1.8,0-3.6,0.9-3.6,2.9c0,4.8,11,5.9,11,12.9c0,5.1-4.4,7.1-8.9,7.1c-2.3,0-5.5-0.4-7.5-1.8
			c-0.1-0.8-0.2-1.7-0.2-2.5c0-1,0.1-2,0.2-3c1.2,2.8,3.8,5,6.9,5C99.4,52.6,101.2,51.5,101.2,48.9z M124.4,54.4
			c0.5-0.2,1.1-1.1,1.1-2.2v-9c-1.3-0.1-3.1-0.2-5.1-0.2c-2.1,0-3.9,0.1-5.2,0.2v9c0,1.1,0.5,1.9,1.1,2.2h-7.2
			c0.5-0.2,1.1-1.1,1.1-2.2V32.4c0-1.1-0.6-1.9-1.1-2.2h7.2c-0.5,0.3-1.1,1.1-1.1,2.2v8.1c1.3,0.1,3.1,0.2,5.2,0.2
			c2,0,3.8-0.1,5.1-0.2v-8.1c0-1.1-0.6-1.9-1.1-2.2h7.2c-0.5,0.3-1.1,1.1-1.1,2.2v19.8c0,1.1,0.5,1.9,1.1,2.2H124.4z"/>
		<path class="st1" d="M158.1,54.4c0.2-0.2,0.4-0.4,0.4-0.8c0-0.1-0.1-0.4-0.2-0.8c0,0-2-5.4-2.2-6c-1.5-0.2-3-0.2-4.6-0.2
			c-1.4,0-2.9,0-4.3,0.2c-0.2,0.5-2.3,5.9-2.3,5.9c-0.3,0.7-0.4,1-0.4,1.1c0,0.4,0.3,0.5,0.6,0.7h-4.9c0.7-0.4,1.3-1.1,1.6-1.9
			l8-20.6c0-0.1,0-0.2,0-0.3c0-0.6-0.4-1.1-0.9-1.4h6.3l8.1,22.3c0.3,0.9,1,1.5,1.6,1.9L158.1,54.4L158.1,54.4z M151.8,34.8
			l-3.7,9.4c1.1,0.1,2.2,0.1,3.3,0.1c1.3,0,2.5,0,3.8-0.1L151.8,34.8z M166.3,54.4c0.6-0.3,1.2-1.1,1.2-2.2V32.4
			c0-1.1-0.6-1.9-1.2-2.2h7.4c-0.6,0.3-1.2,1.1-1.2,2.2v19.8c0,1.1,0.6,1.9,1.2,2.2H166.3z M185,32.3c-0.4,0-0.8,0.1-1.2,0.1v8.4
			c0.4,0,0.7,0.1,1.1,0.1c2.7,0,4.7-1.5,4.7-4.5C189.7,33.3,187.7,32.3,185,32.3z M197.8,54.5c-0.9,0-1.9,0-2.8-0.2
			c-1.6-0.5-3.9-4.2-4.8-5.6c-1.4-2.4-3.2-5.7-6.4-5.7v9.2c0,0.8,0.4,1.8,1.1,2.2h-7.3c0.8-0.4,1.1-1.3,1.1-2.2V32.4
			c0-0.8-0.4-1.8-1.1-2.2h8.8c3.8,0,8.5,1.5,8.5,6c0,3.8-3.5,5.8-6.1,5.8c5.2,0.3,8.4,11.9,13.5,11.9
			C200.9,54.3,199.4,54.5,197.8,54.5z M228,32.5l-7.3,21.8c-0.6,0-1.2-0.2-1.5-0.4c-0.7-0.7-1.9-3.6-2.3-4.7l-3.3-8.4l-4.8,13.5
			h-2.3l-8.2-21.9c-0.4-0.9-1-1.8-1.9-2.3h7.1c-0.3,0.2-0.5,0.5-0.5,1c0,0.2,0.1,0.6,0.2,0.8l5.4,14.5l5.7-16.3l6.3,15.7l4.8-14.2
			c0.1-0.4,0.2-0.5,0.2-0.8s-0.1-0.5-0.4-0.7h4.7C228.9,30.6,228.3,31.6,228,32.5z M236.8,34.8l-3.7,9.4c1.1,0.1,2.2,0.1,3.3,0.1
			c1.3,0,2.5,0,3.7-0.1L236.8,34.8z M243.1,54.4c0.2-0.2,0.4-0.4,0.4-0.8c0-0.1-0.1-0.4-0.2-0.8c0,0-2-5.4-2.2-6
			c-1.5-0.2-3.1-0.2-4.6-0.2c-1.4,0-2.9,0-4.3,0.2c-0.2,0.5-2.3,5.9-2.3,5.9c-0.3,0.7-0.4,1-0.4,1.1c0,0.4,0.3,0.5,0.6,0.7h-4.9
			c0.7-0.4,1.3-1.1,1.6-1.9l8-20.6c0-0.1,0-0.2,0-0.3c0-0.6-0.4-1.1-0.9-1.4h6.3l8.1,22.3c0.3,0.9,1.1,1.5,1.6,1.9L243.1,54.4
			L243.1,54.4z M264.9,32.7l-5.7,10v9.4c0,0.8,0.3,1.8,1.1,2.2h-7.1c0.7-0.4,1.1-1.4,1.1-2.2v-9.5l-5-8c-0.4-0.7-2.5-4.2-5.1-4.2
			c0.7-0.3,2.8-0.7,4.2-0.7c2.3,0,3.5,0.2,4.9,2.5l4.6,7.3c0.4-0.7,4-7.1,4-7.1c0.4-0.8,0.7-1.3,0.7-1.6c0-0.3-0.1-0.6-0.5-0.8h5.1
			C266.3,30.7,265.5,31.8,264.9,32.7z M278.3,48.9c0-4.6-10.8-5.6-10.8-13c0-4.6,4.3-6,8.1-6c1.7,0,4.1,0.2,5.7,0.9l0.3,4.5
			c-1-2-3.3-3.4-5.6-3.4c-1.8,0-3.6,0.9-3.6,2.9c0,4.8,11,5.9,11,12.9c0,5.1-4.4,7.1-8.9,7.1c-2.3,0-5.5-0.4-7.5-1.8
			c-0.1-0.8-0.2-1.7-0.2-2.5c0-1,0.1-2,0.2-3c1.2,2.8,3.8,5,6.9,5C276.5,52.6,278.3,51.5,278.3,48.9z"/>
	</g>
</g>
<g>
	<g>
		<g>
			<path id="SVGID_2_" class="st2" d="M355,20c0,0,0-0.4-0.1-0.8c-0.1-0.3-0.2-0.6-0.4-1c-0.3-0.4-0.6-0.8-1.1-1.4
				c-0.4-0.4-0.8-0.7-1.4-1.1c-2.1-1.4-4.9-2.2-7.3-2.5c-3.8-0.5-8.1-0.4-8.5-0.4c-1.4,0-10.3,0.1-12.6,0.1
				c-10.2,0.2-22.7,0.2-26,0.2c-33.8,0.2-48.5-0.6-64.9-3.9c-14-2.6-21.7-5.3-21.7-5.3c12.3-0.4,84-3.4,97-3.7
				c8.6-0.2,14.6-0.3,19.5,0c2.5,0.1,4.8,0.4,7.7,0.8c2.6,0.4,5,1.2,6.4,1.7c2.9,1.1,5.4,2.6,6.6,4.2c0,0,0.4,0.4,0.8,1
				c0.5,0.8,1.2,1.7,1.4,2c1.8,2.7,2.6,4.4,2.9,5s0.6,1.3,0.9,1.9s0.4,1,0.5,1.3c0.2,0.7,0.2,1.3,0.2,1.4L355,20z"/>
		</g>
	</g>
</g>
</svg>
