<svg xmlns="http://www.w3.org/2000/svg" width="167.91mm" height="29.27mm" viewBox="0 0 475.96 82.96"><defs><style>.a{fill:#fff;}</style></defs><title>logo-gatwick-airport</title><path class="a" d="M410.73,44.25c1.62-2.23.28-3.93-1.42-4.14a4.68,4.68,0,0,0-1.54,0,4.9,4.9,0,0,0-2.6,1.47c-2.56,2.59-.7,5.87-0.7,5.87s4.09-.24,6.26-3.23M283.06,64.73h0.14a72.41,72.41,0,0,1-7.34,8.73,27,27,0,0,1-12.47,7.74C259.7,82.27,261,83,263.52,83a30.7,30.7,0,0,0,15.6-5.68,65.47,65.47,0,0,0,8.55-7.51l11.73-7.53h0.09a7,7,0,0,0-1.19,3.27,3.89,3.89,0,0,0,.86,2.85c0.83,0.95,2.18,1.31,4.15,1.25,2.74-.09,5.83-1.21,9.22-3.83h0.08a3.57,3.57,0,0,0-.11,1.24c0.09,1.09.81,2.6,3.76,2.59s6.13-1.61,9.23-3.7c2.18-1.48,6.84-5.18,7.2-5.54h0.08c-1.53,2.23-2.62,4.54-2.64,6,0,0.75.18,3.21,3.93,3.21,4.18,0,7.29-2.81,8.72-3.83s5-3.78,6.39-4.86c0.88-.64,2.09-1.57,3.32-2.46l1.63-1.17h0.07c-1.08,1.2-2.72,3.17-3.48,4.2-2,2.76-2.24,3.85-2.3,4.61-0.13,2.11,1.27,3.56,3.63,3.51,3.64,0,7.44-2.53,10.1-4.61,0.88-.69,1.91-1.46,2.93-2.28h0.08a6.41,6.41,0,0,0-1.25,3.61c0,1.19.79,3.28,4.51,3.28,3.42,0,6.25-1,10.76-4.4a51.25,51.25,0,0,0,4.3-3.8,6.27,6.27,0,0,0,2.18.14,9.11,9.11,0,0,0,4.63-1.78c0.38-.25,1.25-0.86,2-1.39h0.08a32.31,32.31,0,0,0-3.75,4.54,7.64,7.64,0,0,0-1.33,3.66c0,1.13.34,3,3.72,3,3.54,0.07,6.25-1.24,9.24-3.43,1.18-.86,4-3.1,5.35-4.06h0.07a6.18,6.18,0,0,0-.9,2.94c0,2.9,2,4.54,6,4.54h0.08c3.67,0,7.14-1.06,11.35-4,1.64-1.15,3.76-2.73,5.87-4.31h0.08c-1.45,2.15-3.26,4.86-3.85,5.87a1.94,1.94,0,0,0-.34,1,1.25,1.25,0,0,0,.15.65c0.35,0.55,1.05.66,2.37,0.65,2.63,0,2.74.06,4-1.06s2.22-2.09,4.16-3.92c0.34-.32,1.37-1.23,2-1.72,2,1.11,5.68,3,6.34,3.29,8,3.82,12.12,4.65,18.58,4.65a27.51,27.51,0,0,0,12.17-2.43l0.67-.37c1-.59,1.6-1.19,1.6-1.55s-0.77-.51-2.47.1l-0.47.16a24.57,24.57,0,0,1-11.77.72c-4.12-.63-6.31-1.73-9.52-3.09-0.75-.32-3.18-1.51-3.7-1.77-1.77-.88-3.78-1.88-6.71-3.47,2.86-2.31,6.19-4.26,9.08-4.46a1.11,1.11,0,0,1,1.13.83,3,3,0,0,0,2.9,1.56c1.71,0,3.1-1,3.1-2.44s-1.05-2.38-3.1-2.44c-4.9-.14-9.41,1.91-13.44,4.91-1.66,1.24-3.53,2.81-5,4h-0.08c0.24-.36,1.2-1.68,1.5-2.1,3.75-5.09,6.8-8.57,7.79-9.74,1.35-1.59,3.19-3.72,5-5.75,2.39-2.65,4.49-4.33,4.29-4.84-0.3-.77-3.38.15-6.12,1.46a25,25,0,0,0-5.81,4.22c-3,2.94-4.09,4.4-9.51,10.34a45.85,45.85,0,0,1-4.68,4.39A85.56,85.56,0,0,1,421.26,64c-4.33,2.8-6,2.86-7.34,2.76a2.13,2.13,0,0,1-2-1.61c-0.44-1.64,0-4.13,3.37-7.67,2.28-2.37,4.08-2.92,5.12-3a1.13,1.13,0,0,1,1.06.86,3,3,0,0,0,2.88,1.52c1.71,0,3.09-1,3.09-2.44,0-1.6-1.06-2.39-3.09-2.44a21.4,21.4,0,0,0-4.56.39A24.62,24.62,0,0,0,413,55a33.22,33.22,0,0,0-4.48,2.8c-1.14.85-2.07,1.45-3.26,2.4-1,.75-3,2.36-4.28,3.34a24.18,24.18,0,0,1-4,2.53,2.15,2.15,0,0,1-1.86.28c-0.42-.34-0.18-0.83.26-1.51s1.26-1.9,2.92-4,5.07-5.88,5.07-5.88c0.85-.89.7-1.35,0.62-1.53-0.3-.69-1-0.82-3.28-0.82-2.58,0-3.66.14-6.45,2.31-2.49,1.94-3.29,2.64-4.66,3.61A7.18,7.18,0,0,1,385.16,60,15.24,15.24,0,0,0,388,57.12c1.57-2.23,1.48-4.31.35-4.83-1.34-.61-3.53.24-5.21,2.91a5.91,5.91,0,0,0-.84,5,45.74,45.74,0,0,1-4.16,3.64,20.84,20.84,0,0,1-4.61,2.67c-1.4.58-2.05,0.28-2.26,0.11A0.72,0.72,0,0,1,371,66a2.68,2.68,0,0,1,.38-1.16,34.42,34.42,0,0,1,2.9-4.37c1.14-1.55,1.91-2.49,2.89-3.71l1.53-1.93a1.73,1.73,0,0,0,.61-1.51c-0.22-.5-0.83-0.82-2.48-0.83-3,0-3.39.42-4.3,1.23-3.2,2.83-4.88,4.67-9.26,8.1A36.7,36.7,0,0,1,357,66.15c-1.23.6-2,.08-1.44-0.75a44.38,44.38,0,0,1,3.53-4.66c1.72-2.13,3.38-4.15,5-5.94,0.27-.3.84-1,0.53-1.49s-1.16-.73-2.9-0.76c-4-.07-5,0.89-7,2.32s-4.36,3.09-6.1,4.36c-1.38,1-3.87,2.83-5.37,3.94a41.08,41.08,0,0,1-3.94,2.69c-1.27.74-1.87,0.68-2.21,0.4s-0.08-.8.24-1.4a91.37,91.37,0,0,1,6.93-10.2h5.63a1.25,1.25,0,0,0,1.33-1,0.86,0.86,0,0,0-.86-1h-4.56c1.51-1.91,2.77-3.44,4.52-5.48,2.17-2.52,3.22-3.46,4.46-4.72,1.43-1.45-.65-1.11-0.65-1.11a17.7,17.7,0,0,0-9.76,5,74.86,74.86,0,0,0-5.79,6.3H334.7a1.25,1.25,0,0,0-1.33,1,0.86,0.86,0,0,0,.86,1h2.4c-0.14.13-2.35,2.2-4,3.56,0,0-3,2.46-6.71,5.12a29.84,29.84,0,0,1-4.49,2.76c-1.42.65-1.78,0.21-1.86,0a1.56,1.56,0,0,1,.39-1.21s1.43-2,3.1-4.16,3.36-4,4.9-5.84a1.6,1.6,0,0,0,.58-1.54c-0.24-.64-1.26-0.78-2.83-0.78-2.53,0-3.33.25-5,2h-0.08a2.75,2.75,0,0,0-.42-1.05,3.26,3.26,0,0,0-2.69-1.21,18.94,18.94,0,0,0-8.72,2.09,32.73,32.73,0,0,0-5.46,3L300.94,59,296,62.18c-1.84,1.24-4.45,2.89-6.17,3.89H289.8c0.63-.83,2.75-3.73,3.48-4.77,0,0,4-5.37,5-6.82s-0.23-2-2.28-2c-2.35,0-3.87.31-5.06,1.66s-2.14,2.51-3.27,3.63c-7.52,7.52-13.37,8.27-16.2,8.28-1.47,0-2.71-.33-3.28-1.1a3.52,3.52,0,0,1-.52-2.42c0.31-4,4.38-10.36,11.67-16,4.68-3.59,11.36-7.07,18.73-7.31,0.93,0,1.84.33,1.13,1.61-1.48,2.67,0,4.43,2.34,4.49s4.18-.93,4.84-2.66a4,4,0,0,0-1-4.69,7,7,0,0,0-4.16-1.24,51.07,51.07,0,0,0-25.31,6c-4.45,2.46-11.5,7.54-15,13.42a14.44,14.44,0,0,0-2.1,5.46c-0.5,4.26,1.06,8.16,8.62,8.07a28.13,28.13,0,0,0,15.59-4.95m25.57-5.5A20.14,20.14,0,0,1,314.92,55a5.12,5.12,0,0,1,3-.35,1.05,1.05,0,0,1,.8,1.43c-0.33,1.27-2.54,4.12-5.67,6.92-2.43,2.17-5,3.68-6.8,3.73a1.15,1.15,0,0,1-1.09-.53c-0.41-.65-0.27-3.58,3.47-7"/><rect class="a" x="331.92" y="0.49" width="3.03" height="24.13"/><polygon class="a" points="9.28 15.08 0 0.49 3.41 0.49 10.77 12.87 18.14 0.49 21.55 0.49 12.26 15.08 12.26 24.62 9.28 24.62 9.28 15.08"/><polygon class="a" points="173.7 0.49 177.61 0.49 191.84 21.41 191.9 21.41 191.9 0.49 194.37 0.49 194.37 24.62 190.44 24.62 176.23 3.75 176.17 3.75 176.16 24.62 173.7 24.62 173.7 0.49"/><polygon class="a" points="263.63 0.49 267.53 0.49 281.76 21.41 281.83 21.41 281.83 0.49 284.29 0.49 284.29 24.62 280.36 24.62 266.16 3.75 266.09 3.75 266.09 24.62 263.63 24.62 263.63 0.49"/><path class="a" d="M203.36,0.49h9.73c4.74,0,11.49,3.17,11.49,12.06s-6.75,12.07-11.49,12.07h-9.73V0.49Zm3,21.85h5.45c5.52,0,9.71-2.91,9.71-9.78s-4.19-9.78-9.71-9.78h-5.45V22.34Z"/><path class="a" d="M326.07,24.62h-3.24l-2.33-5.93H307.4L305,24.62H301.8l9.84-24.13h4.58ZM308.2,16.37h11.47L314.29,2.8h-0.73Z"/><polygon class="a" points="463.9 2.8 456.09 2.8 456.09 24.62 453.06 24.62 453.06 2.8 445.25 2.8 445.25 0.49 463.9 0.49 463.9 2.8"/><path class="a" d="M73.72,0.49v16c0,4.27-3.06,6.53-6.88,6.53S60,20.77,60,16.5v-16H57v15c0,7,4.33,9.85,9.86,9.85,5.26,0,9.86-2.88,9.86-9.85v-15h-3Z"/><path class="a" d="M49.64,12.69A12.41,12.41,0,0,1,36.95,25.38,12.37,12.37,0,0,1,24.26,12.69,12.37,12.37,0,0,1,36.95,0,12.41,12.41,0,0,1,49.64,12.69M36.95,2.27c-5.89,0-9.52,4.67-9.52,10.42s3.63,10.42,9.52,10.42,9.52-4.66,9.52-10.42S42.84,2.27,36.95,2.27"/><path class="a" d="M166.92,12.69a12.69,12.69,0,1,1-25.38,0,12.69,12.69,0,0,1,25.38,0M154.23,2.27c-5.89,0-9.52,4.67-9.52,10.42s3.63,10.42,9.52,10.42,9.52-4.66,9.52-10.42-3.63-10.42-9.52-10.42"/><path class="a" d="M256.53,12.69a12.69,12.69,0,1,1-25.38,0,12.69,12.69,0,0,1,25.38,0M243.85,2.27c-5.89,0-9.52,4.67-9.52,10.42s3.63,10.42,9.52,10.42,9.52-4.66,9.52-10.42-3.63-10.42-9.52-10.42"/><path class="a" d="M417.16,12.69a12.69,12.69,0,1,1-25.38,0,12.69,12.69,0,0,1,25.38,0M404.47,2.27c-5.89,0-9.52,4.67-9.52,10.42s3.63,10.42,9.52,10.42S414,18.44,414,12.69s-3.63-10.42-9.52-10.42"/><path class="a" d="M96,0.49a7.15,7.15,0,0,1,7.36,7.18,7.24,7.24,0,0,1-6,6.94l7.71,10h-3.74l-7.36-9.74H88.09v9.74h-3V0.49H96ZM95,12.55c3.24,0,5.26-2.14,5.26-4.88a4.77,4.77,0,0,0-4.77-4.89H88.09v9.78H95Z"/><path class="a" d="M354.77,0.49a7.15,7.15,0,0,1,7.36,7.18,7.24,7.24,0,0,1-6,6.94l7.71,10h-3.74l-7.36-9.74h-5.84v9.74h-3V0.49h10.9Zm-1,12.07c3.24,0,5.26-2.14,5.26-4.88a4.77,4.77,0,0,0-4.77-4.89h-7.42v9.78h6.92Z"/><path class="a" d="M434.51,0.49a7.15,7.15,0,0,1,7.36,7.18,7.24,7.24,0,0,1-6,6.94l7.7,10h-3.74l-7.36-9.74h-5.83v9.74h-3V0.49h10.9Zm-1,12.07c3.24,0,5.26-2.14,5.26-4.88A4.77,4.77,0,0,0,434,2.78h-7.41v9.78h6.92Z"/><polygon class="a" points="123.6 0.49 126.63 0.49 126.63 22.3 138.19 22.3 138.19 24.62 123.6 24.62 123.6 0.49"/><path class="a" d="M369.28,0.49h10.38c4.58,0,7.86,3,7.86,7.2s-3.23,7.19-7.85,7.19H372.3v9.75h-3V0.49m3,12.08h6.88c3.25,0,5.31-2.06,5.31-4.87a4.77,4.77,0,0,0-4.77-4.89H372.3v9.78Z"/></svg>